<?xml version="1.0" encoding="UTF-8" ?>
<!DOCTYPE svg PUBLIC "-//W3C//DTD SVG 1.1//EN" "http://www.w3.org/Graphics/SVG/1.1/DTD/svg11.dtd">
<svg width="317pt" height="70pt" viewBox="0 0 317 70" version="1.1" xmlns="http://www.w3.org/2000/svg">
<path fill="#000000" opacity="1.00" d=" M 34.29 3.15 C 38.78 0.89 43.90 -0.57 48.93 0.56 C 55.98 1.84 61.61 7.32 64.05 13.93 C 67.31 15.96 70.51 18.92 70.74 23.02 C 71.24 26.22 69.52 29.07 67.97 31.70 C 69.52 34.21 71.21 36.91 70.82 40.00 C 70.89 43.03 68.78 45.38 67.14 47.70 C 68.90 51.89 69.09 57.21 65.53 60.54 C 62.73 63.80 58.19 63.99 54.27 63.27 C 52.24 66.87 48.89 69.59 44.68 70.00 L 44.36 70.00 C 41.21 69.67 38.40 68.17 35.95 66.24 C 32.83 66.75 29.43 67.88 26.39 66.56 C 24.38 65.48 25.12 61.78 27.48 61.79 C 30.40 61.21 34.04 61.74 36.06 59.06 C 39.54 55.33 37.12 48.30 31.96 47.78 C 24.11 47.09 16.19 48.00 8.33 47.40 C 5.65 47.16 5.35 42.76 8.04 42.21 C 15.98 41.52 23.99 42.46 31.93 41.82 C 35.23 41.46 37.79 38.26 37.67 34.98 C 37.78 31.38 34.59 28.24 31.05 28.11 C 24.34 27.75 17.63 28.16 10.92 28.01 C 9.57 27.86 7.93 28.13 6.86 27.12 C 5.40 25.75 6.24 22.68 8.35 22.59 C 16.20 21.88 24.13 22.84 31.99 22.19 C 35.37 21.83 37.95 18.41 37.70 15.07 C 37.67 11.60 34.50 8.52 31.01 8.64 C 28.91 8.34 25.53 8.78 25.20 5.87 C 25.57 1.37 31.33 3.23 34.29 3.15 M 39.91 6.59 C 41.48 8.75 42.74 11.12 43.38 13.73 C 46.83 13.39 50.13 14.54 52.77 16.73 C 54.45 15.66 56.19 14.67 57.97 13.77 C 54.68 7.32 46.74 4.17 39.91 6.59 M 57.99 19.97 C 55.77 21.08 55.79 23.77 55.03 25.80 C 53.88 27.56 50.53 27.11 50.33 24.85 C 49.86 22.47 48.84 19.56 45.94 19.41 C 42.11 18.58 41.12 23.18 38.84 25.23 C 40.74 27.17 42.18 29.49 43.11 32.04 C 46.91 31.58 51.00 32.55 53.52 35.62 C 55.89 38.03 55.26 42.80 58.98 43.89 C 62.44 45.16 66.29 41.46 65.05 37.97 C 64.35 35.23 61.39 34.77 59.13 33.97 C 57.05 33.40 57.19 29.94 59.19 29.37 C 61.40 28.74 64.23 28.41 64.97 25.79 C 66.96 21.76 61.48 17.70 57.99 19.97 M 43.28 38.21 C 42.01 40.54 40.75 42.91 38.81 44.76 C 44.00 49.19 44.78 57.36 40.51 62.68 C 42.59 64.31 45.77 64.95 47.72 62.76 C 50.31 60.67 47.40 55.83 51.03 54.69 C 54.23 54.47 55.53 59.37 59.03 57.98 C 63.23 57.85 64.62 49.97 59.97 49.73 C 55.08 49.52 51.11 45.75 50.06 41.07 C 49.58 38.15 45.67 36.48 43.28 38.21 Z" />
<path fill="#000000" opacity="1.00" d=" M 16.46 13.43 C 20.51 11.59 25.55 12.85 29.98 12.65 C 32.88 12.50 33.56 16.94 30.94 17.93 C 26.64 18.36 22.27 18.26 17.96 18.03 C 15.80 17.92 14.88 14.83 16.46 13.43 Z" />
<path fill="#000000" opacity="1.00" d=" M 2.32 32.39 C 11.49 32.08 20.70 32.25 29.89 32.31 C 32.19 32.15 33.54 35.30 31.90 36.88 C 31.00 38.10 29.33 37.73 28.04 37.87 C 19.65 37.78 11.26 37.96 2.87 37.78 C -0.21 37.99 -0.81 32.81 2.32 32.39 Z" />
<path fill="#000000" opacity="1.00" d=" M 17.19 52.20 C 21.44 51.59 25.80 51.87 30.08 52.01 C 32.89 51.92 33.55 56.44 30.91 57.30 C 26.59 57.69 22.22 57.61 17.90 57.37 C 15.35 57.09 14.90 53.23 17.19 52.20 Z" />
<path fill="#fafafc" opacity="1.00" d=" M 39.91 6.59 C 46.74 4.17 54.68 7.32 57.97 13.77 C 56.19 14.67 54.45 15.66 52.77 16.73 C 50.13 14.54 46.83 13.39 43.38 13.73 C 42.74 11.12 41.48 8.75 39.91 6.59 Z" />
<path fill="#fafafc" opacity="1.00" d=" M 57.99 19.97 C 61.48 17.70 66.96 21.76 64.97 25.79 C 64.23 28.41 61.40 28.74 59.19 29.37 C 57.19 29.94 57.05 33.40 59.13 33.97 C 61.39 34.77 64.35 35.23 65.05 37.97 C 66.29 41.46 62.44 45.16 58.98 43.89 C 55.26 42.80 55.89 38.03 53.52 35.62 C 51.00 32.55 46.91 31.58 43.11 32.04 C 42.18 29.49 40.74 27.17 38.84 25.23 C 41.12 23.18 42.11 18.58 45.94 19.41 C 48.84 19.56 49.86 22.47 50.33 24.85 C 50.53 27.11 53.88 27.56 55.03 25.80 C 55.79 23.77 55.77 21.08 57.99 19.97 Z" />
<path fill="#fafafc" opacity="1.00" d=" M 43.28 38.21 C 45.67 36.48 49.58 38.15 50.06 41.07 C 51.11 45.75 55.08 49.52 59.97 49.73 C 64.62 49.97 63.23 57.85 59.03 57.98 C 55.53 59.37 54.23 54.47 51.03 54.69 C 47.40 55.83 50.31 60.67 47.72 62.76 C 45.77 64.95 42.59 64.31 40.51 62.68 C 44.78 57.36 44.00 49.19 38.81 44.76 C 40.75 42.91 42.01 40.54 43.28 38.21 Z" />
<path fill="#151515" opacity="1.00" d=" M 124.15 18.79 C 126.59 18.78 129.04 18.75 131.49 18.69 C 131.69 29.78 131.49 40.88 131.59 51.97 C 129.10 51.99 126.62 52.00 124.14 52.01 C 124.15 51.19 124.18 49.56 124.19 48.75 C 121.13 51.83 116.47 53.37 112.33 51.57 C 103.10 47.60 102.76 32.19 111.63 27.63 C 115.84 25.37 120.88 26.91 124.16 30.05 C 124.13 26.30 124.16 22.54 124.15 18.79 M 116.39 33.58 C 111.34 35.55 111.80 44.21 117.10 45.53 C 121.48 46.87 125.25 42.02 124.00 37.93 C 123.60 34.47 119.59 32.11 116.39 33.58 Z" />
<path fill="#151515" opacity="1.00" d=" M 93.48 20.47 C 95.95 20.47 98.43 20.45 100.91 20.44 C 101.37 30.93 100.98 41.44 101.12 51.94 C 98.54 52.01 95.96 52.00 93.38 51.91 C 93.59 41.43 93.41 30.95 93.48 20.47 Z" />
<path fill="#151515" opacity="1.00" d=" M 142.06 28.14 C 146.21 25.93 151.53 26.02 155.59 28.42 C 159.87 31.00 161.86 36.56 160.69 41.34 C 154.80 41.22 148.89 41.06 143.01 41.44 C 144.00 43.21 144.69 45.70 147.06 46.02 C 149.35 46.76 151.28 45.23 152.86 43.81 C 155.46 43.74 158.05 43.76 160.65 43.81 C 158.37 51.01 149.60 54.35 142.92 51.15 C 133.99 47.33 133.61 32.68 142.06 28.14 M 143.27 36.96 C 146.74 37.03 150.21 37.02 153.68 36.93 C 152.96 35.15 152.10 33.10 149.94 32.79 C 146.87 31.81 144.05 34.08 143.27 36.96 Z" />
<path fill="#151515" opacity="1.00" d=" M 171.31 27.53 C 176.14 25.65 182.12 26.47 185.93 30.11 C 190.49 34.65 190.85 42.71 186.83 47.71 C 181.75 54.02 170.52 53.88 165.86 47.15 C 161.32 40.79 163.64 30.28 171.31 27.53 M 174.47 33.54 C 169.54 35.77 170.24 45.18 176.00 45.76 C 179.69 46.21 182.47 42.42 181.86 38.96 C 182.26 35.12 178.05 31.79 174.47 33.54 Z" />
<path fill="#151515" opacity="1.00" d=" M 198.58 27.72 C 202.81 25.39 208.09 26.73 211.31 30.14 C 211.29 29.34 211.27 27.76 211.25 26.96 C 213.73 26.96 216.22 26.97 218.70 26.98 C 218.66 35.68 218.79 44.39 218.66 53.09 C 218.66 56.81 216.72 60.48 213.56 62.47 C 206.41 66.74 194.51 63.86 193.16 54.67 C 195.54 54.63 197.93 54.62 200.31 54.65 C 202.17 57.48 206.01 58.81 209.03 56.98 C 211.91 55.27 211.07 51.41 211.37 48.61 C 208.33 51.82 203.56 53.41 199.37 51.53 C 190.31 47.50 189.95 32.41 198.58 27.72 M 203.40 33.63 C 198.27 35.79 199.20 45.14 204.99 45.67 C 208.73 46.28 211.84 42.52 211.28 38.93 C 211.44 35.01 207.00 31.85 203.40 33.63 Z" />
<path fill="#151515" opacity="1.00" d=" M 224.45 27.03 C 227.02 26.97 229.59 26.97 232.16 27.05 C 232.13 28.01 232.08 29.93 232.05 30.89 C 234.04 28.59 236.68 27.06 239.62 26.29 C 239.82 29.06 239.84 31.84 239.82 34.62 C 237.24 34.85 233.36 34.46 232.42 37.58 C 231.75 42.33 232.29 47.16 232.14 51.94 C 229.58 51.98 227.03 52.00 224.48 51.99 C 224.49 43.67 224.54 35.35 224.45 27.03 Z" />
<path fill="#151515" opacity="1.00" d=" M 248.01 27.94 C 252.31 25.30 257.89 26.65 261.21 30.23 C 261.20 29.42 261.17 27.78 261.16 26.96 C 263.64 26.96 266.13 26.98 268.62 27.01 C 268.59 35.34 268.60 43.66 268.61 51.99 C 266.12 51.99 263.64 52.00 261.15 52.00 C 261.17 51.17 261.20 49.49 261.21 48.66 C 258.16 51.80 253.47 53.39 249.29 51.57 C 240.29 47.66 239.75 32.92 248.01 27.94 M 253.40 33.55 C 248.33 35.51 248.77 44.26 254.11 45.55 C 258.50 46.84 262.24 41.96 260.99 37.88 C 260.50 34.48 256.60 32.13 253.40 33.55 Z" />
<path fill="#151515" opacity="1.00" d=" M 274.45 26.98 C 277.01 26.96 279.57 26.97 282.13 27.02 C 282.10 27.74 282.05 29.18 282.03 29.90 C 286.35 25.18 294.43 25.79 298.03 31.07 C 302.18 25.02 312.83 25.13 315.71 32.28 C 317.60 38.65 316.30 45.45 316.67 52.00 C 314.18 52.00 311.68 52.00 309.19 51.99 C 309.07 46.99 309.48 41.97 309.01 36.98 C 308.55 32.25 300.70 31.88 299.56 36.37 C 298.90 41.54 299.46 46.79 299.28 51.99 C 296.78 52.00 294.28 52.00 291.78 52.00 C 291.68 47.01 291.97 42.01 291.67 37.02 C 291.36 32.31 283.55 31.85 282.32 36.23 C 281.79 41.45 282.25 46.73 282.10 51.97 C 279.54 52.00 276.99 51.99 274.44 51.97 C 274.48 43.64 274.46 35.31 274.45 26.98 Z" />
</svg>